<svg width="12" height="14" viewBox="0 0 12 14" fill="none" xmlns="http://www.w3.org/2000/svg">
<path fill-rule="evenodd" clip-rule="evenodd" d="M6.362 0.501432C4.40927 0.493802 2.40453 1.39534 1.26032 3.09292C0.0695755 4.83378 -0.230579 7.13197 0.163589 9.20804C0.440448 10.5937 1.20925 11.9033 2.38619 12.6273C3.72869 13.4831 5.36564 13.6113 6.89566 13.4267C7.66356 13.3285 8.41953 13.1123 9.12187 12.7735V11.2386C7.54342 11.9286 5.7389 12.2647 4.06134 11.7694C2.88271 11.4192 1.92471 10.3483 1.66548 9.08661C1.35601 7.80231 1.43119 6.42124 1.82338 5.16822C2.24339 3.91601 3.15408 2.83271 4.34987 2.3771C5.54305 1.88473 6.91376 1.83964 8.13152 2.26472C9.21685 2.68438 10.1013 3.67205 10.3721 4.85595C10.6536 5.93955 10.6212 7.13665 10.2236 8.17975C10.0482 8.61927 9.65199 9.06755 9.15783 8.96698C8.8844 8.92052 8.6709 8.67612 8.64421 8.38764C8.5523 7.92968 8.58942 7.46529 8.62656 7.00062C8.64837 6.72785 8.67018 6.45498 8.6659 6.18326L8.67669 5.97008C8.71067 5.29808 8.74466 4.62607 8.77976 3.95414C7.6671 3.60294 6.46524 3.37706 5.31725 3.66058C4.15495 3.99646 3.2634 5.09903 3.06888 6.3481C2.89903 7.27806 2.97282 8.28252 3.38082 9.12833C3.7581 9.85333 4.4884 10.3694 5.28026 10.4014C6.15393 10.4879 7.08461 10.1034 7.58102 9.32566C7.90423 10.1033 8.76915 10.5456 9.55526 10.3881C10.493 10.2525 11.2498 9.47885 11.5802 8.57135C12.1265 7.22597 12.1019 5.67697 11.7231 4.28658C11.2715 2.75197 10.1476 1.43885 8.69686 0.904449C7.9538 0.609741 7.15604 0.484978 6.362 0.501432ZM7.18821 5.05644C6.8886 4.98756 6.57858 4.9611 6.26979 4.96215C6.22425 4.96316 6.17869 4.96578 6.13331 4.96993C5.48513 4.9768 4.93498 5.49132 4.7188 6.11208C4.5259 6.7878 4.46366 7.54126 4.67456 8.22199C4.78481 8.73502 5.3091 9.02741 5.78107 8.97864C6.23198 8.98494 6.6364 8.6552 6.82143 8.23103C7.0984 7.51153 7.12172 6.73771 7.14494 5.96684C7.15414 5.66173 7.16332 5.35707 7.18821 5.05644Z" fill="#8793FF"/>
</svg>
