<svg width="13" height="12" viewBox="0 0 13 12" fill="none" xmlns="http://www.w3.org/2000/svg">
<path fill-rule="evenodd" clip-rule="evenodd" d="M2.20644 1.24322C0.548821 2.90084 0.548821 5.58838 2.20644 7.246C3.76332 8.80288 6.22872 8.8975 7.89604 7.52987L12.3662 12L13 11.3662L8.52601 6.89217C9.8591 5.22565 9.7535 2.78749 8.20922 1.24322C6.5516 -0.414406 3.86407 -0.414406 2.20644 1.24322ZM2.84028 6.61216C1.53271 5.3046 1.53271 3.18462 2.84028 1.87705C4.14784 0.569485 6.26783 0.569485 7.57539 1.87705C8.88296 3.18462 8.88296 5.3046 7.57539 6.61216C6.26783 7.91973 4.14784 7.91973 2.84028 6.61216Z" fill="#7685A0"/>
</svg>
