<svg width="172" height="43" viewBox="0 0 172 43" fill="none" xmlns="http://www.w3.org/2000/svg">
<path d="M34.1108 0.438232C31.1024 4.6454 27.33 7.56174 22.8732 9.5219C21.3292 9.09162 19.7375 8.86851 18.1776 8.88445C16.6177 8.86851 15.026 9.09162 13.482 9.5219C9.02513 7.56174 5.25272 4.6454 2.22843 0.438232C1.30523 2.73305 -2.18066 10.6374 2.02151 21.6813C2.02151 21.6813 0.668536 27.4502 3.15164 32.4064C3.15164 32.4064 6.73303 30.7809 9.56631 33.0597C12.5429 35.4821 11.5878 37.7928 13.6889 39.8008C15.4876 41.6334 18.1776 41.6334 18.1776 41.6334C18.1776 41.6334 20.8676 41.6334 22.6663 39.8008C24.7673 37.8087 23.8123 35.4821 26.7888 33.0597C29.6221 30.7809 33.2035 32.4064 33.2035 32.4064C35.6707 27.4502 34.3337 21.6813 34.3337 21.6813C38.5199 10.6374 35.0181 2.71712 34.1108 0.438232ZM4.26585 20.1514C1.97376 15.4502 1.35298 8.996 2.80146 3.8964C4.71153 8.72508 7.30606 10.9084 10.394 13.2032C9.07288 15.9123 6.62161 18.494 4.26585 20.1514ZM10.8397 28.4382C9.04104 27.6414 8.65903 26.0637 8.65903 26.0637C11.1262 24.5179 14.7235 25.6972 14.8509 29.3625C12.9408 28.2151 12.32 29.0757 10.8397 28.4382ZM18.1776 41.4422C16.8883 41.4422 15.8377 40.5179 15.8377 39.3864C15.8377 38.255 16.8883 37.3307 18.1776 37.3307C19.4669 37.3307 20.5174 38.255 20.5174 39.3864C20.5015 40.5179 19.4669 41.4422 18.1776 41.4422ZM25.4995 28.4382C24.0352 29.0757 23.3985 28.2151 21.5043 29.3625C21.6157 25.6972 25.229 24.5179 27.6961 26.0637C27.6802 26.0637 27.2982 27.6414 25.4995 28.4382ZM32.0734 20.1514C29.7336 18.494 27.2664 15.9123 25.9452 13.2032C29.0332 10.9084 31.6277 8.74102 33.5378 3.8964C35.0022 8.996 34.3655 15.4502 32.0734 20.1514Z" fill="#F7F7F7"/>
<path d="M48.4682 9.34659H53.7687L64.2263 25.5378V9.34659H69.6701V34.3984H64.4014L53.9119 18.2071V34.3984H48.4682V9.34659Z" fill="#F7F7F7"/>
<path d="M74.2383 13.7291C73.6653 13.1872 73.3788 12.486 73.3788 11.6574C73.3788 10.8446 73.6653 10.1593 74.2383 9.60158C74.8113 9.04381 75.5117 8.75696 76.3553 8.75696C77.183 8.75696 77.8993 9.04381 78.4723 9.60158C79.0453 10.1593 79.3319 10.8446 79.3319 11.6574C79.3319 12.486 79.0453 13.1872 78.4723 13.7291C77.8993 14.2868 77.1989 14.5578 76.3553 14.5578C75.5117 14.5418 74.8113 14.2709 74.2383 13.7291ZM73.6175 17.2032H79.0613V34.3984H73.6175V17.2032Z" fill="#F7F7F7"/>
<path d="M88.8186 42.3187C87.6566 42.1115 86.6857 41.8247 85.9057 41.4582V37.4741C87.7362 38.2868 89.8691 38.6852 92.2727 38.6852C94.1987 38.6852 95.5835 38.2868 96.4271 37.506C97.2548 36.7251 97.6845 35.5299 97.6845 33.9522V32.8844C96.9524 33.5538 96.0451 34.0637 94.9627 34.4143C93.8962 34.7649 92.7502 34.9402 91.5245 34.9402C89.7577 34.9402 88.1819 34.5578 86.7812 33.7769C85.3805 32.996 84.2981 31.9123 83.5022 30.5418C82.7223 29.1554 82.3243 27.5777 82.3243 25.8088C82.3243 23.992 82.7064 22.3984 83.4863 21.0119C84.2663 19.6255 85.3327 18.5578 86.7016 17.8088C88.0705 17.0597 89.6463 16.6773 91.4131 16.6773C92.7502 16.6773 93.9281 16.8685 94.9627 17.251C95.9814 17.6335 96.9523 18.239 97.8596 19.0837V17.2191H103.081V33.3147C103.081 36.2948 102.205 38.6056 100.438 40.2311C98.6714 41.8566 95.9496 42.6693 92.2727 42.6693C91.1266 42.6374 89.9806 42.5259 88.8186 42.3187ZM95.8381 29.8247C96.7295 29.2191 97.3503 28.4064 97.6845 27.4024V24.1833C97.3025 23.1793 96.6818 22.3825 95.8063 21.7769C94.9309 21.1872 93.944 20.8844 92.8138 20.8844C91.3654 20.8844 90.1716 21.3307 89.2484 22.2072C88.3252 23.0837 87.8636 24.2789 87.8636 25.7609C87.8636 27.2589 88.3252 28.4701 89.2484 29.3785C90.1716 30.2868 91.3495 30.7331 92.8138 30.7331C93.9281 30.749 94.9468 30.4303 95.8381 29.8247Z" fill="#F7F7F7"/>
<path d="M106.837 7.91232H112.249V19.1633C113.061 18.3346 113.984 17.6972 115.003 17.2828C116.021 16.8685 117.12 16.6613 118.297 16.6613C120.637 16.6613 122.388 17.2828 123.534 18.5418C124.696 19.8008 125.269 21.49 125.269 23.6095V34.3984H119.857V24.2151C119.857 22 118.839 20.8844 116.785 20.8844C115.878 20.8844 115.034 21.1075 114.239 21.5538C113.459 22 112.79 22.6534 112.233 23.5139V34.4143H106.821V7.91232H106.837Z" fill="#F7F7F7"/>
<path d="M131.477 33.2669C130.442 32.1514 129.917 30.6056 129.917 28.6295V21.1076H127.418V17.2032H129.917V12.0398H135.329V17.2032H139.372V21.1076H135.329V27.9123C135.329 28.9163 135.52 29.6335 135.902 30.0797C136.284 30.5259 136.968 30.749 137.939 30.749C138.719 30.749 139.483 30.5578 140.2 30.1753V34.2231C139.101 34.7012 137.717 34.9402 136.045 34.9402C134.04 34.9402 132.512 34.3825 131.477 33.2669Z" fill="#F7F7F7"/>
<path d="M142.699 7.91232H148.111V34.3984H142.699V7.91232Z" fill="#F7F7F7"/>
<path d="M154.382 41.3466C153.634 41.251 153.061 41.1235 152.679 40.9482V36.9004C153.363 37.1553 154.127 37.2988 154.971 37.2988C155.83 37.2988 156.483 37.1075 156.929 36.7251C157.374 36.3426 157.741 35.753 158.027 34.9402L158.6 33.4741L151.151 17.2032H156.594L161.465 29.0597L166.081 17.2032H171.493L164.187 35.5936C163.375 37.6175 162.372 39.1155 161.179 40.0717C159.985 41.0279 158.457 41.5059 156.594 41.5059C155.878 41.49 155.146 41.4422 154.382 41.3466Z" fill="#F7F7F7"/>
</svg>
